<svg width="300" height="300" viewBox="0 0 300 300" fill="none" xmlns="http://www.w3.org/2000/svg">
<path fill-rule="evenodd" clip-rule="evenodd" d="M150 30C83.7258 30 30 83.7258 30 150V270H198C211.255 270 222 259.255 222 246C222 232.745 211.255 222 198 222H150C110.235 222 78 189.765 78 150C78 110.235 110.235 78 150 78H270V30H150ZM68.4 255.6C55.1452 255.6 44.4 244.855 44.4 231.6C44.4 218.345 55.1452 207.6 68.4 207.6C81.6548 207.6 92.4 218.345 92.4 231.6C92.4 244.855 81.6548 255.6 68.4 255.6Z" fill="#27EAA6"/>
<path d="M257.961 206.128C265.666 190.673 270 173.243 270 154.8V126H150C136.745 126 126 136.745 126 150C126 163.255 136.745 174 150 174H198C223.019 174 245.057 186.761 257.961 206.128Z" fill="#27EAA6"/>
</svg>
